<svg width="32" height="32" viewBox="0 0 32 32" fill="none" xmlns="http://www.w3.org/2000/svg">
<path d="M16 17.3334C15.6464 17.3334 15.3073 17.4739 15.0572 17.7239C14.8072 17.974 14.6667 18.3131 14.6667 18.6667V22.6667C14.6667 23.0204 14.8072 23.3595 15.0572 23.6096C15.3073 23.8596 15.6464 24.0001 16 24.0001C16.3537 24.0001 16.6928 23.8596 16.9428 23.6096C17.1929 23.3595 17.3334 23.0204 17.3334 22.6667V18.6667C17.3334 18.3131 17.1929 17.974 16.9428 17.7239C16.6928 17.4739 16.3537 17.3334 16 17.3334ZM22.6667 12.0001V9.33342C22.6667 7.5653 21.9643 5.86961 20.7141 4.61937C19.4638 3.36913 17.7682 2.66675 16 2.66675C14.2319 2.66675 12.5362 3.36913 11.286 4.61937C10.0358 5.86961 9.33337 7.5653 9.33337 9.33342V12.0001C8.27251 12.0001 7.25509 12.4215 6.50495 13.1717C5.7548 13.9218 5.33337 14.9392 5.33337 16.0001V25.3334C5.33337 26.3943 5.7548 27.4117 6.50495 28.1618C7.25509 28.912 8.27251 29.3334 9.33337 29.3334H22.6667C23.7276 29.3334 24.745 28.912 25.4951 28.1618C26.2453 27.4117 26.6667 26.3943 26.6667 25.3334V16.0001C26.6667 14.9392 26.2453 13.9218 25.4951 13.1717C24.745 12.4215 23.7276 12.0001 22.6667 12.0001ZM12 9.33342C12 8.27255 12.4215 7.25513 13.1716 6.50499C13.9218 5.75484 14.9392 5.33341 16 5.33341C17.0609 5.33341 18.0783 5.75484 18.8285 6.50499C19.5786 7.25513 20 8.27255 20 9.33342V12.0001H12V9.33342ZM24 25.3334C24 25.687 23.8596 26.0262 23.6095 26.2762C23.3595 26.5263 23.0203 26.6667 22.6667 26.6667H9.33337C8.97975 26.6667 8.64061 26.5263 8.39057 26.2762C8.14052 26.0262 8.00004 25.687 8.00004 25.3334V16.0001C8.00004 15.6465 8.14052 15.3073 8.39057 15.0573C8.64061 14.8072 8.97975 14.6667 9.33337 14.6667H22.6667C23.0203 14.6667 23.3595 14.8072 23.6095 15.0573C23.8596 15.3073 24 15.6465 24 16.0001V25.3334Z" fill="#1B1B1B"/>
</svg>
