<svg width="24" height="24" viewBox="0 0 24 24" fill="none" xmlns="http://www.w3.org/2000/svg">
<path fill-rule="evenodd" clip-rule="evenodd" d="M13.611 10.5491L12.0001 5.5366L10.3892 10.5491H5.10126L9.37932 13.6915L7.75957 18.7315L12.0001 15.6166L16.2407 18.7315L14.6209 13.6915L18.899 10.5491H13.611ZM8.93124 8.54906H2.66081C1.50152 8.54906 1.0161 10.0299 1.9504 10.7162L7.03457 14.4508L5.09957 20.4717C4.74352 21.5796 6.01455 22.4949 6.95242 21.806L12.0001 18.0982L17.0478 21.806C17.9857 22.4949 19.2567 21.5796 18.9007 20.4717L16.9657 14.4508L22.0499 10.7162C22.9842 10.0299 22.4987 8.54906 21.3395 8.54906H15.069L13.1426 2.55477C12.7857 1.44431 11.2146 1.44431 10.8577 2.55476L8.93124 8.54906Z" fill="#1B1B1B"/>
</svg>
