<svg width="28" height="28" viewBox="0 0 28 28" fill="none" xmlns="http://www.w3.org/2000/svg">
<path d="M14.8777 18.1434L21.4694 11.5401C21.5787 11.4317 21.6655 11.3026 21.7247 11.1605C21.784 11.0183 21.8145 10.8658 21.8145 10.7118C21.8145 10.5578 21.784 10.4053 21.7247 10.2631C21.6655 10.1209 21.5787 9.9919 21.4694 9.88345C21.2508 9.66615 20.9551 9.54419 20.6469 9.54419C20.3386 9.54419 20.0429 9.66615 19.8244 9.88345L13.991 15.6584L8.21602 9.88345C7.99743 9.66615 7.70174 9.54419 7.39352 9.54419C7.08531 9.54419 6.78961 9.66615 6.57102 9.88345C6.46079 9.9915 6.37309 10.1203 6.31301 10.2625C6.25293 10.4047 6.22166 10.5574 6.22102 10.7118C6.22166 10.8661 6.25293 11.0188 6.31301 11.161C6.37309 11.3032 6.46079 11.4321 6.57102 11.5401L13.1627 18.1434C13.2719 18.2619 13.4045 18.3564 13.5521 18.421C13.6997 18.4857 13.8591 18.519 14.0202 18.519C14.1813 18.519 14.3407 18.4857 14.4883 18.421C14.6358 18.3564 14.7684 18.2619 14.8777 18.1434Z" fill="#1B1B1B"/>
</svg>
