<svg width="15" height="15" viewBox="0 0 15 15" fill="none" xmlns="http://www.w3.org/2000/svg">
<path fill-rule="evenodd" clip-rule="evenodd" d="M14.697 1.76597C15.101 1.36198 15.101 0.706984 14.697 0.302993C14.293 -0.100998 13.638 -0.100998 13.234 0.302993L0.302993 13.234C-0.100998 13.638 -0.100998 14.293 0.302993 14.697C0.706984 15.101 1.36198 15.101 1.76597 14.697L14.697 1.76597ZM14.697 5.47541C15.101 5.8794 15.101 6.5344 14.697 6.93839L6.93839 14.697C6.5344 15.101 5.8794 15.101 5.47541 14.697C5.07142 14.293 5.07142 13.638 5.47541 13.234L13.234 5.47541C13.638 5.07142 14.293 5.07142 14.697 5.47541ZM14.697 10.6478C15.101 11.0518 15.101 11.7068 14.697 12.1108L12.1108 14.697C11.7068 15.101 11.0518 15.101 10.6478 14.697C10.2438 14.293 10.2438 13.638 10.6478 13.234L13.234 10.6478C13.638 10.2438 14.293 10.2438 14.697 10.6478Z" fill="#B4B4B4"/>
</svg>
