<svg width="58" height="58" viewBox="0 0 58 58" fill="none" xmlns="http://www.w3.org/2000/svg">
<path d="M50.7499 12.0833H48.3333V9.66667C48.3333 9.02573 48.0786 8.41104 47.6254 7.95783C47.1722 7.50461 46.5575 7.25 45.9166 7.25C45.2756 7.25 44.661 7.50461 44.2077 7.95783C43.7545 8.41104 43.4999 9.02573 43.4999 9.66667V12.0833H14.4999V9.66667C14.4999 9.02573 14.2453 8.41104 13.7921 7.95783C13.3389 7.50461 12.7242 7.25 12.0833 7.25C11.4423 7.25 10.8276 7.50461 10.3744 7.95783C9.9212 8.41104 9.66659 9.02573 9.66659 9.66667V12.0833H7.24992C6.60898 12.0833 5.99429 12.3379 5.54108 12.7912C5.08786 13.2444 4.83325 13.8591 4.83325 14.5V29C4.83325 29.6409 5.08786 30.2556 5.54108 30.7088C5.99429 31.1621 6.60898 31.4167 7.24992 31.4167H9.66659V48.3333C9.66659 48.9743 9.9212 49.589 10.3744 50.0422C10.8276 50.4954 11.4423 50.75 12.0833 50.75C12.7242 50.75 13.3389 50.4954 13.7921 50.0422C14.2453 49.589 14.4999 48.9743 14.4999 48.3333V31.4167H43.4999V48.3333C43.4999 48.9743 43.7545 49.589 44.2077 50.0422C44.661 50.4954 45.2756 50.75 45.9166 50.75C46.5575 50.75 47.1722 50.4954 47.6254 50.0422C48.0786 49.589 48.3333 48.9743 48.3333 48.3333V31.4167H50.7499C51.3909 31.4167 52.0056 31.1621 52.4588 30.7088C52.912 30.2556 53.1666 29.6409 53.1666 29V14.5C53.1666 13.8591 52.912 13.2444 52.4588 12.7912C52.0056 12.3379 51.3909 12.0833 50.7499 12.0833ZM9.66659 23.0067V16.9167H15.7566L9.66659 23.0067ZM12.9049 26.5833L22.5716 16.9167H30.6191L20.9524 26.5833H12.9049ZM27.7674 26.5833L37.4341 16.9167H45.1191L35.4524 26.5833H27.7674ZM48.3333 26.5833H42.2674L48.3333 20.5175V26.5833Z" fill="#1B1B1B"/>
</svg>
