<svg width="80" height="80" viewBox="0 0 80 80" fill="none" xmlns="http://www.w3.org/2000/svg">
<path d="M56.6668 23.3333H23.3334C22.4494 23.3333 21.6015 23.6845 20.9764 24.3096C20.3513 24.9347 20.0001 25.7826 20.0001 26.6666C20.0001 27.5507 20.3513 28.3985 20.9764 29.0236C21.6015 29.6488 22.4494 30 23.3334 30H56.6668C57.5508 30 58.3987 29.6488 59.0238 29.0236C59.6489 28.3985 60.0001 27.5507 60.0001 26.6666C60.0001 25.7826 59.6489 24.9347 59.0238 24.3096C58.3987 23.6845 57.5508 23.3333 56.6668 23.3333ZM56.6668 36.6666H23.3334C22.4494 36.6666 21.6015 37.0178 20.9764 37.6429C20.3513 38.2681 20.0001 39.1159 20.0001 40C20.0001 40.884 20.3513 41.7319 20.9764 42.357C21.6015 42.9821 22.4494 43.3333 23.3334 43.3333H56.6668C57.5508 43.3333 58.3987 42.9821 59.0238 42.357C59.6489 41.7319 60.0001 40.884 60.0001 40C60.0001 39.1159 59.6489 38.2681 59.0238 37.6429C58.3987 37.0178 57.5508 36.6666 56.6668 36.6666ZM63.3334 6.66663H16.6667C14.0146 6.66663 11.471 7.72019 9.59568 9.59556C7.72032 11.4709 6.66675 14.0145 6.66675 16.6666V50C6.66675 52.6521 7.72032 55.1957 9.59568 57.071C11.471 58.9464 14.0146 60 16.6667 60H55.3001L67.6334 72.3666C67.9449 72.6756 68.3143 72.92 68.7204 73.0859C69.1265 73.2517 69.5614 73.3358 70.0001 73.3333C70.4373 73.3446 70.8711 73.2532 71.2667 73.0666C71.8755 72.8166 72.3966 72.3919 72.7644 71.8462C73.1321 71.3004 73.3301 70.658 73.3334 70V16.6666C73.3334 14.0145 72.2799 11.4709 70.4045 9.59556C68.5291 7.72019 65.9856 6.66663 63.3334 6.66663ZM66.6668 61.9666L59.0334 54.3C58.7219 53.991 58.3526 53.7466 57.9464 53.5807C57.5403 53.4148 57.1054 53.3308 56.6668 53.3333H16.6667C15.7827 53.3333 14.9348 52.9821 14.3097 52.357C13.6846 51.7319 13.3334 50.884 13.3334 50V16.6666C13.3334 15.7826 13.6846 14.9347 14.3097 14.3096C14.9348 13.6845 15.7827 13.3333 16.6667 13.3333H63.3334C64.2175 13.3333 65.0653 13.6845 65.6904 14.3096C66.3156 14.9347 66.6668 15.7826 66.6668 16.6666V61.9666Z" fill="#1B1B1B"/>
</svg>
