<svg width="32" height="32" viewBox="0 0 32 32" fill="none" xmlns="http://www.w3.org/2000/svg">
<path d="M22.6667 14.6666H24C24.3537 14.6666 24.6928 14.5261 24.9429 14.2761C25.1929 14.026 25.3334 13.6869 25.3334 13.3333V11.9999C25.3334 11.6463 25.1929 11.3072 24.9429 11.0571C24.6928 10.8071 24.3537 10.6666 24 10.6666H22.6667C22.3131 10.6666 21.9739 10.8071 21.7239 11.0571C21.4738 11.3072 21.3334 11.6463 21.3334 11.9999V13.3333C21.3334 13.6869 21.4738 14.026 21.7239 14.2761C21.9739 14.5261 22.3131 14.6666 22.6667 14.6666ZM8.00004 15.9999H14.6667C15.0203 15.9999 15.3595 15.8594 15.6095 15.6094C15.8596 15.3593 16 15.0202 16 14.6666C16 14.313 15.8596 13.9738 15.6095 13.7238C15.3595 13.4737 15.0203 13.3333 14.6667 13.3333H8.00004C7.64642 13.3333 7.30728 13.4737 7.05723 13.7238C6.80718 13.9738 6.66671 14.313 6.66671 14.6666C6.66671 15.0202 6.80718 15.3593 7.05723 15.6094C7.30728 15.8594 7.64642 15.9999 8.00004 15.9999ZM29.3334 5.33325H2.66671C2.31309 5.33325 1.97395 5.47373 1.7239 5.72378C1.47385 5.97382 1.33337 6.31296 1.33337 6.66659V25.3333C1.33337 25.6869 1.47385 26.026 1.7239 26.2761C1.97395 26.5261 2.31309 26.6666 2.66671 26.6666H29.3334C29.687 26.6666 30.0261 26.5261 30.2762 26.2761C30.5262 26.026 30.6667 25.6869 30.6667 25.3333V6.66659C30.6667 6.31296 30.5262 5.97382 30.2762 5.72378C30.0261 5.47373 29.687 5.33325 29.3334 5.33325ZM28 23.9999H4.00004V7.99992H28V23.9999ZM8.00004 21.3333H14.6667C15.0203 21.3333 15.3595 21.1928 15.6095 20.9427C15.8596 20.6927 16 20.3535 16 19.9999C16 19.6463 15.8596 19.3072 15.6095 19.0571C15.3595 18.8071 15.0203 18.6666 14.6667 18.6666H8.00004C7.64642 18.6666 7.30728 18.8071 7.05723 19.0571C6.80718 19.3072 6.66671 19.6463 6.66671 19.9999C6.66671 20.3535 6.80718 20.6927 7.05723 20.9427C7.30728 21.1928 7.64642 21.3333 8.00004 21.3333Z" fill="#1B1B1B"/>
</svg>
