<svg width="21" height="21" viewBox="0 0 21 21" fill="none" xmlns="http://www.w3.org/2000/svg">
<path d="M14.3482 6.6518C14.2518 6.55458 14.1371 6.47741 14.0107 6.42475C13.8843 6.37209 13.7487 6.34498 13.6118 6.34498C13.4749 6.34498 13.3393 6.37209 13.2129 6.42475C13.0865 6.47741 12.9718 6.55458 12.8753 6.6518L10.5 9.03749L8.1247 6.6518C7.92938 6.45648 7.66447 6.34675 7.38825 6.34675C7.11203 6.34675 6.84712 6.45648 6.6518 6.6518C6.45648 6.84712 6.34675 7.11203 6.34675 7.38825C6.34675 7.66447 6.45648 7.92938 6.6518 8.1247L9.03749 10.5L6.6518 12.8753C6.55458 12.9718 6.47741 13.0865 6.42475 13.2129C6.37209 13.3393 6.34498 13.4749 6.34498 13.6118C6.34498 13.7487 6.37209 13.8843 6.42475 14.0107C6.47741 14.1371 6.55458 14.2518 6.6518 14.3482C6.74823 14.4455 6.86295 14.5226 6.98935 14.5753C7.11575 14.6279 7.25132 14.6551 7.38825 14.6551C7.52518 14.6551 7.66076 14.6279 7.78716 14.5753C7.91355 14.5226 8.02828 14.4455 8.1247 14.3482L10.5 11.9625L12.8753 14.3482C12.9718 14.4455 13.0865 14.5226 13.2129 14.5753C13.3393 14.6279 13.4749 14.6551 13.6118 14.6551C13.7487 14.6551 13.8843 14.6279 14.0107 14.5753C14.1371 14.5226 14.2518 14.4455 14.3482 14.3482C14.4455 14.2518 14.5226 14.1371 14.5753 14.0107C14.6279 13.8843 14.6551 13.7487 14.6551 13.6118C14.6551 13.4749 14.6279 13.3393 14.5753 13.2129C14.5226 13.0865 14.4455 12.9718 14.3482 12.8753L11.9625 10.5L14.3482 8.1247C14.4455 8.02828 14.5226 7.91355 14.5753 7.78716C14.6279 7.66076 14.6551 7.52518 14.6551 7.38825C14.6551 7.25132 14.6279 7.11575 14.5753 6.98935C14.5226 6.86295 14.4455 6.74823 14.3482 6.6518ZM17.8334 3.16662C16.8766 2.17593 15.732 1.38573 14.4665 0.842115C13.201 0.2985 11.84 0.0123597 10.4627 0.000391634C9.08543 -0.0115764 7.71957 0.250867 6.44483 0.772408C5.17008 1.29395 4.01196 2.06414 3.03805 3.03805C2.06414 4.01196 1.29395 5.17008 0.772408 6.44483C0.250867 7.71957 -0.0115764 9.08543 0.000391634 10.4627C0.0123597 11.84 0.2985 13.201 0.842115 14.4665C1.38573 15.732 2.17593 16.8766 3.16662 17.8334C4.12346 18.8241 5.26801 19.6143 6.53351 20.1579C7.799 20.7015 9.16009 20.9877 10.5373 20.9996C11.9146 21.0116 13.2805 20.7492 14.5552 20.2276C15.83 19.7061 16.9881 18.9359 17.962 17.962C18.9359 16.9881 19.7061 15.83 20.2276 14.5552C20.7492 13.2805 21.0116 11.9146 20.9996 10.5373C20.9877 9.16009 20.7015 7.799 20.1579 6.53351C19.6143 5.26801 18.8241 4.12346 17.8334 3.16662ZM16.3709 16.3709C15.0142 17.7291 13.2286 18.5749 11.3182 18.7642C9.40784 18.9534 7.49095 18.4745 5.89411 17.4089C4.29727 16.3434 3.11928 14.7571 2.56083 12.9204C2.00239 11.0837 2.09804 9.11024 2.8315 7.33616C3.56495 5.56209 4.89082 4.09719 6.58323 3.19106C8.27563 2.28493 10.2299 1.99362 12.113 2.36676C13.9961 2.73991 15.6915 3.75442 16.9105 5.23746C18.1295 6.7205 18.7966 8.5803 18.7981 10.5C18.8018 11.5905 18.5892 12.6708 18.1725 13.6786C17.7559 14.6863 17.1435 15.6014 16.3709 16.3709Z" fill="#1B1B1B"/>
</svg>
